<?xml version="1.0" encoding="UTF-8"?>
<svg id="Ebene_2" data-name="Ebene 2" xmlns="http://www.w3.org/2000/svg" xmlns:xlink="http://www.w3.org/1999/xlink" viewBox="0 0 373.03 85.87">
  <defs>
    <linearGradient id="Unbenannter_Verlauf_182" data-name="Unbenannter Verlauf 182" x1="0" y1="42.94" x2="373.03" y2="42.94" gradientUnits="userSpaceOnUse">
      <stop offset="0" stop-color="#4e52ff"/>
      <stop offset=".43" stop-color="#4e52ff"/>
      <stop offset=".49" stop-color="#675df2"/>
      <stop offset=".62" stop-color="#9c75d9"/>
      <stop offset=".74" stop-color="#c788c4"/>
      <stop offset=".84" stop-color="#e595b6"/>
      <stop offset=".94" stop-color="#f89ead"/>
      <stop offset="1" stop-color="#ffa1aa"/>
    </linearGradient>
  </defs>
  <g id="Ebene_1-2" data-name="Ebene 1">
    <g>
      <g>
        <path d="m51.03,2.94l-2.85,15.92h-15.82l-8.58,48.48H7.33L15.92,18.86H0L2.76,2.94h48.27Z"/>
        <path d="m101.73,21.34h16.65l-22.17,46h-14.9l-2.48-23.09-10.03,23.09h-16.81l-4.81-46h15.31l2.08,25.02,10.86-25.02h13.34l2.67,24.56,10.3-24.56Z"/>
        <path d="m115.25,67.34l8.14-46h15.23l-8.14,46h-15.23Zm16.56-49.77c-2.39,0-4.32-.87-5.8-2.62-1.47-1.75-1.99-3.82-1.56-6.21.37-2.33,1.53-4.37,3.5-6.12,1.96-1.75,4.2-2.62,6.72-2.62s4.4.86,5.84,2.58c1.44,1.72,1.95,3.77,1.52,6.16-.37,2.45-1.53,4.54-3.5,6.26-1.96,1.72-4.2,2.58-6.72,2.58Z"/>
        <path d="m175.3,20.06c4.95,0,8.76,1.73,11.42,5.2,2.66,3.46,3.47,8.32,2.43,14.57l-4.85,27.52h-15.23l4.51-25.58c.37-2.45.03-4.28-1.01-5.47-1.04-1.2-2.61-1.79-4.7-1.79-2.33,0-4.28.71-5.85,2.12-1.57,1.41-2.59,3.5-3.08,6.26v-.12l-4.35,24.59h-15.23l8.14-46h15.23l-.82,4.63c3.49-3.94,7.95-5.92,13.39-5.92Z"/>
        <path d="m225.19,68.72c-9.88,0-17.53-3.31-22.95-9.94-5.43-6.62-7.35-14.81-5.75-24.56,1.53-9.51,5.87-17.33,13.02-23.46,7.14-6.13,15.47-9.2,24.98-9.2,6.32,0,11.7,1.37,16.15,4.09,4.45,2.73,7.83,6.49,10.17,11.27l-15.09,8c-2.45-4.84-6.72-7.27-12.79-7.27-5.03,0-9.4,1.61-13.11,4.83-3.71,3.22-6.03,7.44-6.95,12.65-.86,5.09-.06,9.28,2.39,12.56,2.45,3.28,6.13,4.92,11.04,4.92,6.19,0,11.22-2.58,15.09-7.73l13.52,8.74c-3.44,4.78-7.74,8.5-12.93,11.13-5.18,2.64-10.78,3.96-16.79,3.96Z"/>
        <polygon points="258.49 67.34 266.63 21.34 281.86 21.34 273.72 67.34 258.49 67.34"/>
        <g>
          <path d="m275.05,17.57c-2.39,0-4.32-.87-5.8-2.62-1.47-1.75-1.99-3.82-1.56-6.21.37-2.33,1.53-4.37,3.5-6.12,1.96-1.75,4.2-2.62,6.72-2.62s4.4.86,5.84,2.58c1.44,1.72,1.95,3.77,1.52,6.16-.37,2.45-1.53,4.54-3.5,6.26-1.96,1.72-4.2,2.58-6.72,2.58Z"/>
          <path d="m275.05,17.57c-2.39,0-4.32-.87-5.8-2.62-1.47-1.75-1.99-3.82-1.56-6.21.37-2.33,1.53-4.37,3.5-6.12,1.96-1.75,4.2-2.62,6.72-2.62s4.4.86,5.84,2.58c1.44,1.72,1.95,3.77,1.52,6.16-.37,2.45-1.53,4.54-3.5,6.26-1.96,1.72-4.2,2.58-6.72,2.58Z" fill="#ff7bac"/>
        </g>
        <path d="m307.07,35.97l-2.3,13.34c-.37,2.09.12,3.37,1.47,3.86,1.35.49,3.8.61,7.36.37l-2.39,13.8c-8.65,1.16-14.75.29-18.31-2.62-3.56-2.91-4.72-7.93-3.5-15.04l2.39-13.71h-6.9l2.58-14.63h6.9l1.47-8.28,16.1-4.6-2.3,12.88h9.66l-2.67,14.63h-9.57Z"/>
        <path d="m355.46,21.34h17.57l-23.37,44.62c-3.99,7.67-8.53,13.02-13.62,16.05-5.09,3.04-11.04,4.28-17.85,3.73l2.58-14.35c3.31,0,5.8-.41,7.45-1.24,1.66-.83,3.19-2.38,4.6-4.65l-10.3-44.16h16.19l4.78,26.59,11.96-26.59Z"/>
      </g>
      <g>
        <path d="m51.03,2.94l-2.85,15.92h-15.82l-8.58,48.48H7.33L15.92,18.86H0L2.76,2.94h48.27Z" fill="url(#Unbenannter_Verlauf_182)"/>
        <path d="m101.73,21.34h16.65l-22.17,46h-14.9l-2.48-23.09-10.03,23.09h-16.81l-4.81-46h15.31l2.08,25.02,10.86-25.02h13.34l2.67,24.56,10.3-24.56Z" fill="url(#Unbenannter_Verlauf_182)"/>
        <path d="m115.25,67.34l8.14-46h15.23l-8.14,46h-15.23Zm16.56-49.77c-2.39,0-4.32-.87-5.8-2.62-1.47-1.75-1.99-3.82-1.56-6.21.37-2.33,1.53-4.37,3.5-6.12,1.96-1.75,4.2-2.62,6.72-2.62s4.4.86,5.84,2.58c1.44,1.72,1.95,3.77,1.52,6.16-.37,2.45-1.53,4.54-3.5,6.26-1.96,1.72-4.2,2.58-6.72,2.58Z" fill="url(#Unbenannter_Verlauf_182)"/>
        <path d="m175.3,20.06c4.95,0,8.76,1.73,11.42,5.2,2.66,3.46,3.47,8.32,2.43,14.57l-4.85,27.52h-15.23l4.51-25.58c.37-2.45.03-4.28-1.01-5.47-1.04-1.2-2.61-1.79-4.7-1.79-2.33,0-4.28.71-5.85,2.12-1.57,1.41-2.59,3.5-3.08,6.26v-.12l-4.35,24.59h-15.23l8.14-46h15.23l-.82,4.63c3.49-3.94,7.95-5.92,13.39-5.92Z" fill="url(#Unbenannter_Verlauf_182)"/>
        <path d="m225.19,68.72c-9.88,0-17.53-3.31-22.95-9.94-5.43-6.62-7.35-14.81-5.75-24.56,1.53-9.51,5.87-17.33,13.02-23.46,7.14-6.13,15.47-9.2,24.98-9.2,6.32,0,11.7,1.37,16.15,4.09,4.45,2.73,7.83,6.49,10.17,11.27l-15.09,8c-2.45-4.84-6.72-7.27-12.79-7.27-5.03,0-9.4,1.61-13.11,4.83-3.71,3.22-6.03,7.44-6.95,12.65-.86,5.09-.06,9.28,2.39,12.56,2.45,3.28,6.13,4.92,11.04,4.92,6.19,0,11.22-2.58,15.09-7.73l13.52,8.74c-3.44,4.78-7.74,8.5-12.93,11.13-5.18,2.64-10.78,3.96-16.79,3.96Z" fill="url(#Unbenannter_Verlauf_182)"/>
        <polygon points="258.49 67.34 266.63 21.34 281.86 21.34 273.72 67.34 258.49 67.34" fill="url(#Unbenannter_Verlauf_182)"/>
        <g>
          <path d="m275.05,17.57c-2.39,0-4.32-.87-5.8-2.62-1.47-1.75-1.99-3.82-1.56-6.21.37-2.33,1.53-4.37,3.5-6.12,1.96-1.75,4.2-2.62,6.72-2.62s4.4.86,5.84,2.58c1.44,1.72,1.95,3.77,1.52,6.16-.37,2.45-1.53,4.54-3.5,6.26-1.96,1.72-4.2,2.58-6.72,2.58Z" fill="url(#Unbenannter_Verlauf_182)"/>
          <path d="m275.05,17.57c-2.39,0-4.32-.87-5.8-2.62-1.47-1.75-1.99-3.82-1.56-6.21.37-2.33,1.53-4.37,3.5-6.12,1.96-1.75,4.2-2.62,6.72-2.62s4.4.86,5.84,2.58c1.44,1.72,1.95,3.77,1.52,6.16-.37,2.45-1.53,4.54-3.5,6.26-1.96,1.72-4.2,2.58-6.72,2.58Z" fill="url(#Unbenannter_Verlauf_182)"/>
          <path d="m275.05,17.57c-2.39,0-4.32-.87-5.8-2.62-1.47-1.75-1.99-3.82-1.56-6.21.37-2.33,1.53-4.37,3.5-6.12,1.96-1.75,4.2-2.62,6.72-2.62s4.4.86,5.84,2.58c1.44,1.72,1.95,3.77,1.52,6.16-.37,2.45-1.53,4.54-3.5,6.26-1.96,1.72-4.2,2.58-6.72,2.58Z" fill="url(#Unbenannter_Verlauf_182)"/>
        </g>
        <path d="m307.07,35.97l-2.3,13.34c-.37,2.09.12,3.37,1.47,3.86,1.35.49,3.8.61,7.36.37l-2.39,13.8c-8.65,1.16-14.75.29-18.31-2.62-3.56-2.91-4.72-7.93-3.5-15.04l2.39-13.71h-6.9l2.58-14.63h6.9l1.47-8.28,16.1-4.6-2.3,12.88h9.66l-2.67,14.63h-9.57Z" fill="url(#Unbenannter_Verlauf_182)"/>
        <path d="m355.46,21.34h17.57l-23.37,44.62c-3.99,7.67-8.53,13.02-13.62,16.05-5.09,3.04-11.04,4.28-17.85,3.73l2.58-14.35c3.31,0,5.8-.41,7.45-1.24,1.66-.83,3.19-2.38,4.6-4.65l-10.3-44.16h16.19l4.78,26.59,11.96-26.59Z" fill="url(#Unbenannter_Verlauf_182)"/>
      </g>
    </g>
  </g>
</svg>